<svg width="20" height="20" viewBox="0 0 20 20" fill="none" xmlns="http://www.w3.org/2000/svg">
<path fill-rule="evenodd" clip-rule="evenodd" d="M2.6 0.300003C1.99001 0.300003 1.40499 0.542324 0.973657 0.973657C0.542324 1.40499 0.300003 1.99001 0.300003 2.6V12.95C0.300003 13.56 0.542324 14.145 0.973657 14.5763C1.40499 15.0077 1.99001 15.25 2.6 15.25H4.9V17.55C4.9 18.16 5.14232 18.745 5.57366 19.1763C6.00499 19.6077 6.59 19.85 7.2 19.85H17.55C18.16 19.85 18.745 19.6077 19.1763 19.1763C19.6077 18.745 19.85 18.16 19.85 17.55V7.2C19.85 6.59 19.6077 6.00499 19.1763 5.57366C18.745 5.14232 18.16 4.9 17.55 4.9H15.25V2.6C15.25 1.99001 15.0077 1.40499 14.5763 0.973657C14.145 0.542324 13.56 0.300003 12.95 0.300003H2.6ZM12.95 4.9V2.6H2.6V12.95H4.9V7.2C4.9 6.59 5.14232 6.00499 5.57366 5.57366C6.00499 5.14232 6.59 4.9 7.2 4.9H12.95ZM7.2 7.2H17.55V17.55H7.2V7.2Z" fill="black"/>
</svg>
