<?xml version="1.0" encoding="UTF-8"?><svg id="Layer_1" xmlns="http://www.w3.org/2000/svg" viewBox="0 0 19.55 19.55"><defs><style>.cls-1{fill:#fff;fill-rule:evenodd;stroke-width:0px;}</style></defs><path class="cls-1" d="m2.3,0c-.61,0-1.2.24-1.63.67-.43.43-.67,1.02-.67,1.63v10.35c0,.61.24,1.2.67,1.63.43.43,1.02.67,1.63.67h2.3v2.3c0,.61.24,1.2.67,1.63.43.43,1.02.67,1.63.67h10.35c.61,0,1.2-.24,1.63-.67.43-.43.67-1.02.67-1.63V6.9c0-.61-.24-1.2-.67-1.63-.43-.43-1.02-.67-1.63-.67h-2.3v-2.3c0-.61-.24-1.2-.67-1.63-.43-.43-1.02-.67-1.63-.67H2.3Zm10.35,4.6v-2.3H2.3v10.35h2.3v-5.75c0-.61.24-1.2.67-1.63.43-.43,1.02-.67,1.63-.67h5.75Zm-5.75,2.3h10.35v10.35H6.9V6.9Z"/></svg>