<?xml version="1.0" encoding="UTF-8"?><svg id="Layer_1" xmlns="http://www.w3.org/2000/svg" viewBox="0 0 14.17 14.17"><defs><style>.cls-1{fill:#fff;stroke-width:0px;}</style></defs><path class="cls-1" d="m2.66,12.95L1.42,4.25h11.33l-1.24,8.7c-.05.34-.22.65-.47.87-.26.22-.59.35-.93.35h-6.04c-.34,0-.67-.12-.93-.35-.26-.22-.43-.53-.47-.87ZM13.46,1.42h-3.54v-.71c0-.19-.07-.37-.21-.5-.13-.13-.31-.21-.5-.21h-4.25c-.19,0-.37.07-.5.21-.13.13-.21.31-.21.5v.71H.71c-.19,0-.37.07-.5.21-.13.13-.21.31-.21.5s.07.37.21.5c.13.13.31.21.5.21h12.75c.19,0,.37-.07.5-.21.13-.13.21-.31.21-.5s-.07-.37-.21-.5c-.13-.13-.31-.21-.5-.21Z"/></svg>