<svg width="15" height="15" viewBox="0 0 15 15" fill="none" xmlns="http://www.w3.org/2000/svg">
<path d="M3.07646 13.3671L1.83334 4.66666H13.1667L11.9235 13.3671C11.8753 13.7047 11.7069 14.0135 11.4493 14.2369C11.1916 14.4604 10.8621 14.5833 10.521 14.5833H4.47896C4.13795 14.5833 3.80838 14.4604 3.55075 14.2369C3.29312 14.0135 3.12472 13.7047 3.07646 13.3671ZM13.875 1.83332H10.3333V1.12499C10.3333 0.937128 10.2587 0.756961 10.1259 0.624123C9.99303 0.491284 9.81287 0.416656 9.62501 0.416656H5.37501C5.18714 0.416656 5.00698 0.491284 4.87414 0.624123C4.7413 0.756961 4.66667 0.937128 4.66667 1.12499V1.83332H1.12501C0.937143 1.83332 0.756976 1.90795 0.624138 2.04079C0.491299 2.17363 0.416672 2.35379 0.416672 2.54166C0.416672 2.72952 0.491299 2.90969 0.624138 3.04252C0.756976 3.17536 0.937143 3.24999 1.12501 3.24999H13.875C14.0629 3.24999 14.243 3.17536 14.3759 3.04252C14.5087 2.90969 14.5833 2.72952 14.5833 2.54166C14.5833 2.35379 14.5087 2.17363 14.3759 2.04079C14.243 1.90795 14.0629 1.83332 13.875 1.83332Z" fill="#171717"/>
</svg>
