<?xml version="1.0" encoding="iso-8859-1"?>
<!-- Uploaded to: SVG Repo, www.svgrepo.com, Generator: SVG Repo Mixer Tools -->
<svg fill="#000000" height="800px" width="800px" version="1.1" id="Layer_1" xmlns="http://www.w3.org/2000/svg" xmlns:xlink="http://www.w3.org/1999/xlink" 
	 viewBox="0 0 512 512" xml:space="preserve">
<g>
	<g>
		<path d="M495.231,76.576H16.769C7.508,76.576,0,84.084,0,93.345v325.31c0,9.261,7.508,16.769,16.769,16.769h478.463
			c9.261,0,16.769-7.508,16.769-16.769V93.345C512,84.084,504.492,76.576,495.231,76.576z M478.463,401.886H33.537V110.114h444.926
			V401.886z"/>
	</g>
</g>
<g>
	<g>
		<path d="M375.545,127.315H77.206c-14.833,0.001-26.9,12.068-26.9,26.9v203.571c0,14.832,12.067,26.899,26.899,26.899h298.341
			c14.833,0,26.9-12.067,26.9-26.9v-203.57C402.445,139.381,390.379,127.315,375.545,127.315z M368.908,351.149H83.843V160.853
			h285.066V351.149z"/>
	</g>
</g>
<g>
	<g>
		<circle cx="441.013" cy="256" r="21.799"/>
	</g>
</g>
</svg>