<svg width="21" height="19" viewBox="0 0 21 19" fill="none" xmlns="http://www.w3.org/2000/svg">
<path d="M15.614 14.8125H15.6245M16.0316 11.625H16.6579C17.6307 11.625 18.117 11.625 18.5007 11.7867C19.0122 12.0024 19.4187 12.4161 19.6306 12.9368C19.7895 13.3273 19.7895 13.8224 19.7895 14.8125C19.7895 15.8026 19.7895 16.2977 19.6306 16.6882C19.4187 17.2089 19.0122 17.6226 18.5007 17.8383C18.117 18 17.6307 18 16.6579 18H4.13158C3.15883 18 2.67245 18 2.28878 17.8383C1.77724 17.6226 1.37081 17.2089 1.15892 16.6882C1 16.2977 1 15.8026 1 14.8125C1 13.8224 1 13.3273 1.15892 12.9368C1.37081 12.4161 1.77724 12.0024 2.28878 11.7867C2.67245 11.625 3.15883 11.625 4.13158 11.625H4.75789M10.3947 12.6875V1M10.3947 12.6875L7.26316 9.5M10.3947 12.6875L13.5263 9.5" stroke="white" stroke-width="2" stroke-linecap="round" stroke-linejoin="round"/>
</svg>
