<svg width="16" height="16" viewBox="0 0 16 16" fill="none" xmlns="http://www.w3.org/2000/svg">
<g clip-path="url(#clip0_23_2)">
<path fill-rule="evenodd" clip-rule="evenodd" d="M14.1961 8C14.1961 7.65177 14.1641 7.296 14.0992 6.94023L15.8507 5.42212L14.1886 2.58165L11.9787 3.31859C11.4206 2.85553 10.7843 2.49035 10.1133 2.24847L9.65777 0H6.34293L5.88742 2.24753C5.20883 2.49035 4.58389 2.84988 4.02107 3.31765L1.81213 2.58165L0.150001 5.42212L1.90153 6.94023C1.83658 7.296 1.80458 7.65177 1.80458 8C1.80458 8.34823 1.83658 8.704 1.90153 9.05977L0.150001 10.5779L1.81212 13.4184L4.022 12.6814C4.58012 13.1445 5.21635 13.5097 5.88742 13.7515L6.34293 16H9.65776L10.1133 13.7525C10.7909 13.5097 11.4168 13.1501 11.9796 12.6824L14.1886 13.4193L15.8507 10.5788L14.0992 9.06071C14.1641 8.704 14.1961 8.34823 14.1961 8M8.00034 11.2941C6.18388 11.2941 4.70623 9.81647 4.70623 8C4.70623 6.18353 6.18388 4.70588 8.00034 4.70588C9.81682 4.70588 11.2945 6.18353 11.2945 8C11.2945 9.81647 9.81682 11.2941 8.00034 11.2941Z" fill="white"/>
</g>
<defs>
<clipPath id="clip0_23_2">
<rect width="16" height="16" fill="white"/>
</clipPath>
</defs>
</svg>
