<?xml version="1.0" encoding="iso-8859-1"?>
<!-- Uploaded to: SVG Repo, www.svgrepo.com, Generator: SVG Repo Mixer Tools -->
<svg fill="#3b82f6" height="800px" width="800px" version="1.1" id="Layer_1" xmlns="http://www.w3.org/2000/svg" xmlns:xlink="http://www.w3.org/1999/xlink" 
	 viewBox="0 0 512 512" xml:space="preserve">
<g>
	<g>
		<path d="M512,405.854V31.219H0v374.634h187.317v37.463H143.61v37.463H368.39v-37.463h-43.707v-37.463H512z M287.219,443.317
			h-62.439v-37.463h62.439V443.317z M37.463,368.39V68.683h437.073V368.39H37.463z"/>
	</g>
</g>
<g>
	<g>
		<path d="M249.308,250.98c0-5.801-0.729-11.434-2.09-16.817l18.477-10.667l-18.732-32.443l-18.521,10.693
			c-8.048-7.82-17.999-13.682-29.085-16.83v-21.349h-37.463v21.349c-11.085,3.148-21.036,9.01-29.085,16.829l-18.519-10.693
			l-18.732,32.443l18.476,10.667c-1.361,5.385-2.09,11.017-2.09,16.819c0,5.802,0.729,11.434,2.09,16.819l-18.476,10.667
			l18.732,32.443l18.519-10.693c8.05,7.819,18,13.68,29.085,16.829v21.349h37.463v-21.349c11.087-3.148,21.037-9.01,29.085-16.83
			l18.521,10.693l18.732-32.443l-18.477-10.667C248.578,262.412,249.308,256.78,249.308,250.98z M180.625,282.201
			c-17.214,0-31.22-14.005-31.22-31.22c0-17.214,14.005-31.219,31.22-31.219c17.214,0,31.219,14.005,31.219,31.219
			C211.844,268.196,197.839,282.201,180.625,282.201z"/>
	</g>
</g>
<g>
	<g>
		<path d="M407.076,182.298v-37.463h-21.944c-1.141-3.213-2.573-6.349-4.315-9.366c-1.743-3.017-3.743-5.826-5.953-8.422
			l10.971-19.004l-32.443-18.732l-10.979,19.018c-6.862-1.286-13.807-1.292-20.542-0.034L310.91,89.311l-32.443,18.732
			l10.977,19.013c-4.518,5.296-7.957,11.339-10.23,17.779h-21.99v37.463h21.957c1.13,3.193,2.551,6.329,4.303,9.366
			c1.752,3.036,3.766,5.826,5.964,8.401l-10.984,19.025l32.443,18.732l10.993-19.041c3.402,0.634,6.863,0.97,10.342,0.97
			c3.389,0,6.791-0.322,10.169-0.945l10.979,19.016l32.443-18.732l-10.961-18.984c4.458-5.205,7.926-11.22,10.244-17.808H407.076z
			 M341.517,179.788c-8.946,5.164-20.423,2.089-25.588-6.856c-5.165-8.945-2.089-20.424,6.856-25.589
			c2.887-1.666,6.089-2.518,9.336-2.518c1.627,0,3.266,0.214,4.879,0.647c4.833,1.295,8.871,4.394,11.374,8.728
			C353.537,163.146,350.462,174.623,341.517,179.788z"/>
	</g>
</g>
</svg>