<svg width="734" height="734" viewBox="0 0 734 734" fill="none" xmlns="http://www.w3.org/2000/svg">
<path fill-rule="evenodd" clip-rule="evenodd" d="M733.667 100.333C733.667 45.105 688.897 0.333347 633.667 0.333347H100.333C45.105 0.333347 0.333374 45.105 0.333374 100.333V633.667C0.333374 688.897 45.105 733.667 100.333 733.667H633.667C688.897 733.667 733.667 688.897 733.667 633.667V100.333ZM667 100.333C667 81.924 652.077 67 633.667 67H100.333C81.924 67 67 81.924 67 100.333V633.667C67 652.077 81.924 667 100.333 667H633.667C652.077 667 667 652.077 667 633.667V100.333Z" fill="black"/>
<path d="M127.222 551.037L271.07 287.316C283.704 264.154 316.963 264.154 329.597 287.316L435.217 480.953L471.393 417.647C484.19 395.253 516.477 395.253 529.273 417.647L605.17 550.463C617.867 572.683 601.82 600.333 576.227 600.333H156.485C131.183 600.333 115.106 573.25 127.222 551.037Z" fill="black"/>
<path d="M567 233.667C567 270.486 537.153 300.333 500.333 300.333C463.513 300.333 433.667 270.486 433.667 233.667C433.667 196.848 463.513 167 500.333 167C537.153 167 567 196.848 567 233.667Z" fill="black"/>
</svg>
