<?xml version="1.0" encoding="utf-8"?><!-- Uploaded to: SVG Repo, www.svgrepo.com, Generator: SVG Repo Mixer Tools -->
<svg width="800px" height="800px" viewBox="0 0 24 24" fill="none" xmlns="http://www.w3.org/2000/svg">
<path fill-rule="evenodd" clip-rule="evenodd" d="M10.6776 2.30337C11.5101 1.89888 12.4899 1.89888 13.3223 2.30337L20.6379 5.85815C22.454 6.74064 22.454 9.25936 20.6379 10.1419L13.3223 13.6966C12.4899 14.1011 11.5101 14.1011 10.6776 13.6966L3.36208 10.1419C1.54595 9.25936 1.54595 6.74064 3.36208 5.85815L10.6776 2.30337ZM12.4408 4.01685C12.1633 3.88202 11.8367 3.88202 11.5592 4.01685L4.24364 7.57163C3.88042 7.74813 3.88042 8.25187 4.24364 8.42837L11.5592 11.9831C11.8367 12.118 12.1633 12.118 12.4408 11.9831L19.7563 8.42837C20.1196 8.25187 20.1195 7.74813 19.7563 7.57163L12.4408 4.01685Z" fill="#0F0F0F"/>
<path d="M2.10555 16.8172C2.35254 16.3232 2.95321 16.123 3.44719 16.37L11.5528 20.4227C11.8343 20.5635 12.1657 20.5635 12.4472 20.4227L20.5528 16.37C21.0467 16.123 21.6474 16.3232 21.8944 16.8172C22.1414 17.3111 21.9412 17.9118 21.4472 18.1588L13.3416 22.2116C12.497 22.6339 11.5029 22.6339 10.6583 22.2116L2.55276 18.1588C2.05878 17.9118 1.85856 17.3111 2.10555 16.8172Z" fill="#0F0F0F"/>
<path d="M3.44742 12.1058C2.95344 11.8588 2.35277 12.059 2.10578 12.553C1.85879 13.047 2.05901 13.6477 2.55299 13.8946L10.6586 17.9474C11.5031 18.3697 12.4973 18.3697 13.3418 17.9474L21.4474 13.8946C21.9414 13.6477 22.1416 13.047 21.8946 12.553C21.6476 12.059 21.047 11.8588 20.553 12.1058L12.4474 16.1586C12.1659 16.2993 11.8345 16.2993 11.553 16.1586L3.44742 12.1058Z" fill="#0F0F0F"/>
</svg>