<?xml version="1.0" encoding="UTF-8"?><svg id="Layer_2" xmlns="http://www.w3.org/2000/svg" viewBox="0 0 89.49 89.49"><defs><style>.cls-1{fill:#163d5c;}.cls-1,.cls-2,.cls-3,.cls-4,.cls-5,.cls-6,.cls-7,.cls-8{stroke-width:0px;}.cls-2{fill:#fc9b47;}.cls-3{fill:#ffc336;}.cls-4{fill:#fff;}.cls-5{fill:#5d6466;}.cls-6{fill:#49a29d;}.cls-7{fill:#1b6174;}.cls-8{fill:#de493d;}</style></defs><g id="Layer_1-2"><path class="cls-5" d="m44.75,0C20.03,0,0,20.03,0,44.75s20.03,44.75,44.75,44.75c41.18,0-.31-24.75,7.71-32.4,8.56-8.15,37.03,4.15,37.03-12.34C89.49,20.03,69.46,0,44.75,0Zm6.76,49.39c-2.22.01-5.53.24-6.76,1.42-1.98,1.89-2.13,4.37-1.6,6.42.35,1.35-1,2.48-2.27,1.9-3.5-1.58-5.83-5.3-5.31-9.49.49-3.99,3.69-7.28,7.66-7.87,4.3-.64,8.16,1.74,9.76,5.34.47,1.06-.31,2.28-1.48,2.28Z"/><path class="cls-1" d="m44.75,18.52c3.41,0,6.17-2.76,6.17-6.17s-2.76-6.17-6.17-6.17-6.17,2.76-6.17,6.17,2.76,6.17,6.17,6.17Z"/><path class="cls-4" d="m44.75,83.32c3.41,0,6.17-2.76,6.17-6.17s-2.76-6.17-6.17-6.17-6.17,2.76-6.17,6.17,2.76,6.17,6.17,6.17Z"/><path class="cls-6" d="m77.15,47.83c3.41,0,6.17-2.76,6.17-6.17s-2.76-6.17-6.17-6.17-6.17,2.76-6.17,6.17,2.76,6.17,6.17,6.17Z"/><path class="cls-2" d="m12.34,50.92c3.41,0,6.17-2.76,6.17-6.17s-2.76-6.17-6.17-6.17-6.17,2.76-6.17,6.17,2.76,6.17,6.17,6.17Z"/><path class="cls-8" d="m21.83,28.01c3.41,0,6.17-2.76,6.17-6.17s-2.76-6.17-6.17-6.17-6.17,2.76-6.17,6.17,2.76,6.17,6.17,6.17Z"/><path class="cls-7" d="m64.81,28.01c3.41,0,6.17-2.76,6.17-6.17s-2.76-6.17-6.17-6.17-6.17,2.76-6.17,6.17,2.76,6.17,6.17,6.17Z"/><path class="cls-3" d="m21.83,73.83c3.41,0,6.17-2.76,6.17-6.17s-2.76-6.17-6.17-6.17-6.17,2.76-6.17,6.17,2.76,6.17,6.17,6.17Z"/></g></svg>