<svg width="27" height="26" viewBox="0 0 27 26" fill="none" xmlns="http://www.w3.org/2000/svg">
<path fill-rule="evenodd" clip-rule="evenodd" d="M5.51616 14.1172C7.45322 13.3362 9.63436 13.9104 11.505 15.691L11.5668 15.7564C13.2073 17.7392 13.6691 19.5361 12.9431 21.095C11.1312 24.9834 2.52714 25.5471 1.55243 25.5977L0 25.681L0.871214 24.4375C0.885122 24.4166 2.34796 22.288 2.34796 18.6526C2.34796 16.7322 3.65015 14.8669 5.51616 14.1172ZM24.3099 0.312165C25.0822 0.297282 25.7155 0.518919 26.2099 0.981529C26.7814 1.53192 27.027 2.17153 26.9977 2.88553C26.8432 6.42579 20.0156 12.9113 14.8099 17.344C14.4685 16.4664 13.914 15.4995 13.0474 14.4583L12.9238 14.3244C11.7977 13.2385 10.545 12.4948 9.23351 12.1378C13.4336 7.55628 20.5408 0.45943 24.3099 0.312165Z" fill="black"/>
</svg>
