<svg width="29" height="31" viewBox="0 0 29 31" fill="none" xmlns="http://www.w3.org/2000/svg">
<path d="M8.68751 0.841667C8.56333 0.702642 8.41018 0.592536 8.23884 0.519106C8.06751 0.445676 7.88215 0.410709 7.69584 0.416667C7.32217 0.42199 6.96573 0.574747 6.70417 0.841667C6.56677 0.967739 6.45706 1.12099 6.38201 1.2917C6.30696 1.46241 6.26821 1.64685 6.26821 1.83333C6.26821 2.01981 6.30696 2.20426 6.38201 2.37497C6.45706 2.54568 6.56677 2.69893 6.70417 2.825L10.7417 6.79167L1.39167 16.0708C1.12606 16.3284 0.914881 16.6366 0.770666 16.9773C0.626452 17.318 0.552139 17.6842 0.552139 18.0542C0.552139 18.4241 0.626452 18.7903 0.770666 19.131C0.914881 19.4717 1.12606 19.78 1.39167 20.0375L10.7417 29.3167C10.9957 29.5875 11.3031 29.8028 11.6444 29.9491C11.9858 30.0954 12.3537 30.1695 12.725 30.1667C13.0957 30.1653 13.4624 30.0894 13.8031 29.9433C14.1438 29.7973 14.4517 29.5842 14.7083 29.3167L26.0417 18.0542L8.68751 0.841667ZM3.44584 18.0542L12.725 8.84583L21.9333 18.0542H3.44584Z" fill="black"/>
<path d="M26.0417 21.6667C26.0417 21.6667 23.2083 25.775 23.2083 27.3333C23.2083 28.0848 23.5069 28.8054 24.0382 29.3368C24.5696 29.8682 25.2902 30.1667 26.0417 30.1667C26.7931 30.1667 27.5138 29.8682 28.0451 29.3368C28.5765 28.8054 28.875 28.0848 28.875 27.3333C28.875 25.775 26.0417 21.6667 26.0417 21.6667Z" fill="black"/>
</svg>
