<svg width="468" height="501" viewBox="0 0 468 501" fill="none" xmlns="http://www.w3.org/2000/svg">
<path fill-rule="evenodd" clip-rule="evenodd" d="M277.096 10.0965C290.113 -2.92084 311.22 -2.92084 324.236 10.0965L457.57 143.43C470.586 156.447 470.586 177.553 457.57 190.571L324.236 323.903C311.22 336.92 290.113 336.92 277.096 323.903C264.08 310.887 264.08 289.78 277.096 276.763L353.526 200.333H184C119.567 200.333 67.3332 252.567 67.3332 317C67.3332 381.433 119.567 433.667 184 433.667H267.333C285.743 433.667 300.666 448.59 300.666 467C300.666 485.41 285.743 500.333 267.333 500.333H184C82.7475 500.333 0.666504 418.253 0.666504 317C0.666504 215.747 82.7475 133.667 184 133.667H353.526L277.096 57.2372C264.08 44.2195 264.08 23.1142 277.096 10.0965Z" fill="#171717"/>
</svg>
