<svg width="800" height="762" viewBox="0 0 800 762" fill="none" xmlns="http://www.w3.org/2000/svg">
<path fill-rule="evenodd" clip-rule="evenodd" d="M275 152.429C275 131.4 292.92 114.333 315 114.333C337.08 114.333 355 131.4 355 152.429C355 173.457 337.08 190.524 315 190.524C292.92 190.524 275 173.457 275 152.429ZM720 647.667C720 668.695 702.08 685.762 680 685.762H640V533.381C640 491.286 604.2 457.19 560 457.19H240C195.8 457.19 160 491.286 160 533.381V685.762H120C97.9198 685.762 80.0002 668.695 80.0002 647.667V268.391C80.0002 263.324 82.1198 258.486 85.8398 254.943L160 184.314V228.619C160 270.714 195.8 304.81 240 304.81H560C604.2 304.81 640 270.714 640 228.619V76.2381H680C702.08 76.2381 720 93.3047 720 114.333V647.667ZM560 685.762H240V571.476C240 550.448 257.92 533.381 280 533.381H520C542.08 533.381 560 550.448 560 571.476V685.762ZM240 108.124L273.481 76.2381H560V190.524C560 211.552 542.08 228.619 520 228.619H280C257.92 228.619 240 211.552 240 190.524V108.124ZM720 0.0476074H256.56C245.96 0.0476074 235.8 4.04758 228.28 11.2095L11.7199 217.457C4.19991 224.619 0 234.295 0 244.391V685.762C0 727.857 35.8002 761.952 80.0002 761.952H720C764.2 761.952 800 727.857 800 685.762V76.2381C800 34.1428 764.2 0.0476074 720 0.0476074Z" fill="white"/>
</svg>
