<svg width="14" height="15" viewBox="0 0 14 15" fill="none" xmlns="http://www.w3.org/2000/svg">
<path fill-rule="evenodd" clip-rule="evenodd" d="M5.7071 0.29289C6.0976 0.68342 6.0976 1.31658 5.7071 1.70711L3.41421 4H8.5C11.5376 4 14 6.4624 14 9.5C14 12.5376 11.5376 15 8.5 15H6C5.4477 15 5 14.5523 5 14C5 13.4477 5.4477 13 6 13H8.5C10.433 13 12 11.433 12 9.5C12 7.567 10.433 6 8.5 6H3.41421L5.7071 8.2929C6.0976 8.6834 6.0976 9.3166 5.7071 9.7071C5.3166 10.0976 4.68342 10.0976 4.29289 9.7071L0.29289 5.70711C-0.09763 5.31658 -0.09763 4.68342 0.29289 4.29289L4.29289 0.29289C4.68342 -0.09763 5.3166 -0.09763 5.7071 0.29289Z" fill="#171717"/>
</svg>
